<svg xmlns="http://www.w3.org/2000/svg" viewBox="0 0 100 100" stroke="currentColor" fill="none" stroke-width="1.00" stroke-linecap="round" stroke-linejoin="round">
  <path d="M 5.000 14.000 L 95.000 14.000" />
  <path d="M 5.000 81.500 A 4.500 4.500 0 0 0 9.500 86.000" />
  <path d="M 90.500 86.000 A 4.500 4.500 0 0 0 95.000 81.500" />
  <path d="M 18.500 86.000 L 9.500 86.000" />
  <path d="M 23.000 81.500 L 23.000 32.000" />
  <path d="M 18.500 86.000 A 4.500 4.500 0 0 0 23.000 81.500" />
  <path d="M 77.000 32.000 L 77.000 81.500" />
  <path d="M 90.500 86.000 L 81.500 86.000" />
  <path d="M 77.000 81.500 A 4.500 4.500 0 0 0 81.500 86.000" />
  <path d="M 90.500 32.000 A 4.500 4.500 0 0 0 95.000 27.500" />
  <path d="M 9.500 32.000 L 90.500 32.000" />
  <path d="M 5.000 27.500 A 4.500 4.500 0 0 0 9.500 32.000" />
  <path d="M 95.000 27.500 L 95.000 81.500" />
  <path d="M 5.000 81.500 L 5.000 27.500" />
  <path d="M 9.500 5.000 A 4.500 4.500 0 0 0 5.000 9.500" />
  <path d="M 95.000 9.500 L 95.000 27.500" />
  <path d="M 9.500 5.000 L 90.500 5.000" />
  <path d="M 95.000 9.500 A 4.500 4.500 0 0 0 90.500 5.000" />
  <path d="M 5.000 27.500 L 5.000 14.000" />
  <path d="M 5.000 14.000 L 5.000 9.500" />
  <path d="M 81.500 86.000 L 18.500 86.000" />
  <path d="M 23.000 81.500 A 4.500 4.500 0 0 0 27.500 86.000" />
  <path d="M 72.500 86.000 A 4.500 4.500 0 0 0 77.000 81.500" />
</svg>