<svg xmlns="http://www.w3.org/2000/svg" viewBox="0 0 100 100" stroke="currentColor" fill="none" stroke-width="1.00" stroke-linecap="round" stroke-linejoin="round">
  <path d="M 69.371 7.980 A 1.192 1.192 0 0 0 68.179 6.788" />
  <path d="M 6.192 6.788 A 1.192 1.192 0 0 0 5.000 7.980" />
  <path d="M 5.000 93.808 A 1.192 1.192 0 0 0 6.192 95.000" />
  <path d="M 6.192 95.000 L 68.179 95.000" />
  <path d="M 5.000 7.980 L 5.000 93.808" />
  <path d="M 68.179 95.000 A 1.192 1.192 0 0 0 69.371 93.808" />
  <path d="M 69.371 7.980 L 69.371 93.808" />
  <path d="M 6.192 6.788 L 68.179 6.788" />
  <path d="M 5.000 33.013 L 69.371 33.013" />
  <path d="M 5.000 37.781 L 69.371 37.781" />
  <path d="M 8.576 9.172 A 1.192 1.192 0 0 0 7.384 10.364" />
  <path d="M 7.384 29.437 A 1.192 1.192 0 0 0 8.576 30.629" />
  <path d="M 7.384 29.437 L 7.384 10.364" />
  <path d="M 12.152 30.629 L 12.152 9.172" />
  <path d="M 35.993 10.364 A 1.192 1.192 0 0 0 34.801 9.172" />
  <path d="M 34.801 30.629 A 1.192 1.192 0 0 0 35.993 29.437" />
  <path d="M 35.993 10.364 L 35.993 29.437" />
  <path d="M 8.576 9.172 L 34.801 9.172" />
  <path d="M 34.801 30.629 L 8.576 30.629" />
  <path d="M 39.570 9.172 A 1.192 1.192 0 0 0 38.377 10.364" />
  <path d="M 38.377 29.437 A 1.192 1.192 0 0 0 39.570 30.629" />
  <path d="M 38.377 29.437 L 38.377 10.364" />
  <path d="M 43.146 30.629 L 43.146 9.172" />
  <path d="M 66.987 10.364 A 1.192 1.192 0 0 0 65.795 9.172" />
  <path d="M 65.795 30.629 A 1.192 1.192 0 0 0 66.987 29.437" />
  <path d="M 66.987 10.364 L 66.987 29.437" />
  <path d="M 39.570 9.172 L 65.795 9.172" />
  <path d="M 65.795 30.629 L 39.570 30.629" />
  <path d="M 5.000 6.788 L 5.000 5.000" />
  <path d="M 5.000 6.788 L 69.371 6.788" />
  <path d="M 69.371 6.788 L 69.371 5.000" />
  <path d="M 5.000 5.000 L 69.371 5.000" />
</svg>