<svg xmlns="http://www.w3.org/2000/svg" viewBox="0 0 100 100" stroke="currentColor" fill="none" stroke-width="1.00" stroke-linecap="round" stroke-linejoin="round">
  <path d="M 5.000 39.773 A 2.045 2.045 0 0 0 7.045 41.818" />
  <path d="M 11.136 41.818 L 7.045 41.818" />
  <path d="M 13.182 39.773 L 13.182 17.273" />
  <path d="M 11.136 41.818 A 2.045 2.045 0 0 0 13.182 39.773" />
  <path d="M 5.000 15.227 A 2.045 2.045 0 0 0 7.045 17.273" />
  <path d="M 5.000 39.773 L 5.000 15.227" />
  <path d="M 7.045 5.000 A 2.045 2.045 0 0 0 5.000 7.045" />
  <path d="M 5.000 15.227 L 5.000 9.091" />
  <path d="M 5.000 9.091 L 5.000 7.045" />
  <path d="M 37.727 39.773 L 37.727 17.273" />
  <path d="M 35.682 41.818 A 2.045 2.045 0 0 0 37.727 39.773" />
  <path d="M 13.182 39.773 A 2.045 2.045 0 0 0 15.227 41.818" />
  <path d="M 37.727 39.773 A 2.045 2.045 0 0 0 39.773 41.818" />
  <path d="M 92.955 41.818 A 2.045 2.045 0 0 0 95.000 39.773" />
  <path d="M 86.818 17.273 L 86.818 39.773" />
  <path d="M 92.955 41.818 L 88.864 41.818" />
  <path d="M 86.818 39.773 A 2.045 2.045 0 0 0 88.864 41.818" />
  <path d="M 92.955 17.273 A 2.045 2.045 0 0 0 95.000 15.227" />
  <path d="M 95.000 15.227 L 95.000 39.773" />
  <path d="M 95.000 7.045 L 95.000 15.227" />
  <path d="M 95.000 7.045 A 2.045 2.045 0 0 0 92.955 5.000" />
  <path d="M 84.773 41.818 A 2.045 2.045 0 0 0 86.818 39.773" />
  <path d="M 62.273 39.773 L 62.273 17.273" />
  <path d="M 60.227 41.818 A 2.045 2.045 0 0 0 62.273 39.773" />
  <path d="M 62.273 39.773 A 2.045 2.045 0 0 0 64.318 41.818" />
  <path d="M 7.045 5.000 L 92.955 5.000" />
  <path d="M 5.000 9.091 L 95.000 9.091" />
  <path d="M 7.045 17.273 L 92.955 17.273" />
  <path d="M 84.773 41.818 L 11.136 41.818" />
</svg>