<svg xmlns="http://www.w3.org/2000/svg" viewBox="0 0 100 100" stroke="currentColor" fill="none" stroke-width="1.00" stroke-linecap="round" stroke-linejoin="round">
  <path d="M 95.000 80.000 L 5.000 80.000" />
  <path d="M 5.000 80.000 L 5.000 5.000" />
  <path d="M 5.000 5.000 L 95.000 5.000" />
  <path d="M 95.000 5.000 L 95.000 80.000" />
  <path d="M 13.250 82.250 L 13.250 80.000" />
  <path d="M 13.250 82.250 A 1.500 1.500 0 0 0 14.750 83.750" />
  <path d="M 7.250 84.500 L 7.250 80.000" />
  <path d="M 7.250 84.500 A 1.500 1.500 0 0 0 8.750 86.000" />
  <path d="M 85.250 83.750 L 14.750 83.750" />
  <path d="M 86.750 80.000 L 86.750 82.250" />
  <path d="M 85.250 83.750 A 1.500 1.500 0 0 0 86.750 82.250" />
  <path d="M 92.750 80.000 L 92.750 84.500" />
  <path d="M 91.250 86.000 L 8.750 86.000" />
  <path d="M 91.250 86.000 A 1.500 1.500 0 0 0 92.750 84.500" />
  <path d="M 95.000 74.000 L 5.000 74.000" />
  <path d="M 9.500 52.250 A 14.250 14.250 0 1 0 38.000 52.250 A 14.250 14.250 0 1 0 9.500 52.250" />
  <path d="M 62.000 26.750 A 14.250 14.250 0 1 0 90.500 26.750 A 14.250 14.250 0 1 0 62.000 26.750" />
  <path d="M 12.500 25.250 A 9.750 9.750 0 1 0 32.000 25.250 A 9.750 9.750 0 1 0 12.500 25.250" />
  <path d="M 68.000 53.750 A 9.750 9.750 0 1 0 87.500 53.750 A 9.750 9.750 0 1 0 68.000 53.750" />
  <path d="M 26.750 74.375 L 20.750 74.375" />
  <path d="M 79.250 74.375 L 73.250 74.375" />
  <path d="M 26.750 76.250 L 20.750 76.250" />
  <path d="M 79.250 76.250 L 73.250 76.250" />
  <path d="M 20.750 74.375 L 20.750 76.250" />
  <path d="M 20.750 76.250 A 0.750 0.750 0 0 0 21.500 77.000" />
  <path d="M 26.000 77.000 L 21.500 77.000" />
  <path d="M 26.750 74.375 L 26.750 76.250" />
  <path d="M 26.000 77.000 A 0.750 0.750 0 0 0 26.750 76.250" />
  <path d="M 73.250 74.375 L 73.250 76.250" />
  <path d="M 73.250 76.250 A 0.750 0.750 0 0 0 74.000 77.000" />
  <path d="M 78.500 77.000 L 74.000 77.000" />
  <path d="M 79.250 74.375 L 79.250 76.250" />
  <path d="M 78.500 77.000 A 0.750 0.750 0 0 0 79.250 76.250" />
</svg>