<svg xmlns="http://www.w3.org/2000/svg" viewBox="0 0 100 100" stroke="currentColor" fill="none" stroke-width="1.00" stroke-linecap="round" stroke-linejoin="round">
  <path d="M 5.000 5.000 L 5.000 10.806" />
  <path d="M 6.452 5.000 L 6.452 10.806" />
  <path d="M 5.000 5.000 L 6.452 5.000" />
  <path d="M 5.000 10.806 L 6.452 10.806" />
  <path d="M 6.452 6.911 L 50.000 6.911" />
  <path d="M 6.452 8.907 L 50.000 8.907" />
  <path d="M 50.000 6.911 L 50.000 8.907" />
  <path d="M 50.000 6.820 L 51.452 6.820" />
  <path d="M 50.000 8.998 L 51.452 8.998" />
  <path d="M 50.000 6.911 L 50.000 8.907" />
  <path d="M 50.000 8.998 L 50.000 10.806" />
  <path d="M 50.000 5.000 L 50.000 6.820" />
  <path d="M 51.452 5.000 L 51.452 6.820" />
  <path d="M 51.452 8.998 L 51.452 10.806" />
  <path d="M 93.548 5.000 L 93.548 10.806" />
  <path d="M 95.000 5.000 L 95.000 10.806" />
  <path d="M 50.000 5.000 L 95.000 5.000" />
  <path d="M 50.000 10.806 L 95.000 10.806" />
  <path d="M 50.000 6.911 L 93.548 6.911" />
  <path d="M 50.000 8.907 L 93.548 8.907" />
</svg>