<svg xmlns="http://www.w3.org/2000/svg" viewBox="0 0 100 100" stroke="currentColor" fill="none" stroke-width="1.00" stroke-linecap="round" stroke-linejoin="round">
  <path d="M 5.000 5.000 L 5.000 10.806" />
  <path d="M 6.452 5.000 L 6.452 10.806" />
  <path d="M 5.000 10.806 L 6.452 10.806" />
  <path d="M 5.000 5.000 L 6.452 5.000" />
  <path d="M 6.452 5.000 L 6.452 6.996" />
  <path d="M 93.548 6.996 L 93.548 8.992" />
  <path d="M 93.548 5.000 L 93.548 10.806" />
  <path d="M 95.000 5.000 L 95.000 10.806" />
  <path d="M 93.548 10.806 L 95.000 10.806" />
  <path d="M 93.548 5.000 L 95.000 5.000" />
  <path d="M 95.000 5.000 L 95.000 6.996" />
  <path d="M 50.000 5.000 L 50.000 6.996" />
  <path d="M 50.000 6.996 L 50.000 8.992" />
  <path d="M 6.452 5.000 L 50.000 5.000" />
  <path d="M 6.452 6.996 L 50.000 6.996" />
  <path d="M 50.000 6.996 L 93.548 6.996" />
  <path d="M 50.000 8.992 L 93.548 8.992" />
</svg>