o 
v -2.75 -0.10000000149011612 0
v -2.75 -0.10000000149011612 2.799999952316284
v 2.75 -0.10000000149011612 2.799999952316284
v 2.75 -0.10000000149011612 0
v 2.75 -0.10000000149011612 0
v 2.75 -0.10000000149011612 2.799999952316284
v 2.75 0.10000000149011612 2.799999952316284
v 2.75 0.10000000149011612 0
v 2.75 0.10000000149011612 0
v 2.75 0.10000000149011612 2.799999952316284
v -2.75 0.10000000149011612 2.799999952316284
v -2.75 0.10000000149011612 0
v -2.75 0.10000000149011612 0
v -2.75 0.10000000149011612 2.799999952316284
v -2.75 -0.10000000149011612 2.799999952316284
v -2.75 -0.10000000149011612 0
v -2.75 -0.10000000149011612 0
v 2.75 -0.10000000149011612 0
v 2.75 0.10000000149011612 0
v -2.75 0.10000000149011612 0
v -2.75 -0.10000000149011612 2.799999952316284
v 2.75 -0.10000000149011612 2.799999952316284
v 2.75 0.10000000149011612 2.799999952316284
v -2.75 0.10000000149011612 2.799999952316284
vn 0 -1 0
vn 0 -1 0
vn 0 -1 0
vn 0 -1 0
vn 1 0 0
vn 1 0 0
vn 1 0 0
vn 1 0 0
vn 0 1 0
vn 0 1 0
vn 0 1 0
vn 0 1 0
vn -1 0 0
vn -1 0 0
vn -1 0 0
vn -1 0 0
vn 0 0 -1
vn 0 0 -1
vn 0 0 -1
vn 0 0 -1
vn 0 0 1
vn 0 0 1
vn 0 0 1
vn 0 0 1
f 1//1 4//4 2//2
f 2//2 4//4 3//3
f 5//5 8//8 6//6
f 6//6 8//8 7//7
f 9//9 12//12 10//10
f 10//10 12//12 11//11
f 13//13 16//16 14//14
f 14//14 16//16 15//15
f 17//17 19//19 18//18
f 20//20 19//19 17//17
f 23//23 21//21 22//22
f 23//23 24//24 21//21
