<svg xmlns="http://www.w3.org/2000/svg" viewBox="0 0 100 100" stroke="currentColor" fill="none" stroke-width="1.00" stroke-linecap="round" stroke-linejoin="round">
  <path d="M 5.000 38.750 L 5.385 34.345 L 6.533 30.015 L 8.425 25.834 L 11.029 21.875 L 14.299 18.204 L 18.180 14.885 L 22.606 11.974 L 27.500 9.522 L 32.779 7.569 L 38.353 6.150 L 44.126 5.289 L 50.000 5.000 L 55.874 5.289 L 61.647 6.150 L 67.221 7.569 L 72.500 9.522 L 77.394 11.974 L 81.820 14.885 L 85.701 18.204 L 88.971 21.875 L 91.575 25.834 L 93.467 30.015 L 94.615 34.345 L 95.000 38.750 L 94.615 43.155 L 93.467 47.485 L 91.575 51.666 L 88.971 55.625 L 85.701 59.296 L 81.820 62.615 L 77.394 65.526 L 72.500 67.978 L 67.221 69.931 L 61.647 71.350 L 55.874 72.211 L 50.000 72.500 L 44.126 72.211 L 38.353 71.350 L 32.779 69.931 L 27.500 67.978 L 22.606 65.526 L 18.180 62.615 L 14.299 59.296 L 11.029 55.625 L 8.425 51.666 L 6.533 47.485 L 5.385 43.155 L 5.000 38.750 Z" />
  <path d="M 22.748 55.625 L 23.619 56.276 L 24.522 56.905 L 25.456 57.512 L 26.421 58.096 L 27.414 58.656 L 28.436 59.191 L 29.483 59.702 L 30.556 60.187 L 31.653 60.645 L 32.773 61.077 L 33.913 61.481 L 35.073 61.857 L 36.252 62.205 L 37.448 62.524 L 38.658 62.814 L 39.883 63.074 L 41.120 63.305 L 42.369 63.505 L 43.626 63.675 L 44.892 63.814 L 46.163 63.923 L 47.439 64.000 L 48.719 64.047 L 50.000 64.063 L 51.281 64.047 L 52.561 64.000 L 53.837 63.923 L 55.108 63.814 L 56.374 63.675 L 57.631 63.505 L 58.880 63.305 L 60.117 63.074 L 61.342 62.814 L 62.552 62.524 L 63.748 62.205 L 64.927 61.857 L 66.087 61.481 L 67.227 61.077 L 68.347 60.645 L 69.444 60.187 L 70.517 59.702 L 71.564 59.191 L 72.586 58.656 L 73.579 58.096 L 74.544 57.512 L 75.478 56.905 L 76.381 56.276 L 77.252 55.625" />
  <path d="M 22.748 21.875 L 77.252 21.875" />
  <path d="M 46.250 38.750 A 3.750 3.750 0 1 0 53.750 38.750 A 3.750 3.750 0 1 0 46.250 38.750" />
  <path d="M 48.125 13.438 A 1.875 1.875 0 1 0 51.875 13.438 A 1.875 1.875 0 1 0 48.125 13.438" />
</svg>