<svg xmlns="http://www.w3.org/2000/svg" viewBox="0 0 100 100" stroke="currentColor" fill="none" stroke-width="1.00" stroke-linecap="round" stroke-linejoin="round">
  <path d="M 9.286 5.000 A 4.286 4.286 0 0 0 5.000 9.286" />
  <path d="M 9.286 5.000 L 90.714 5.000" />
  <path d="M 95.000 9.286 A 4.286 4.286 0 0 0 90.714 5.000" />
  <path d="M 95.000 9.286 L 95.000 59.286" />
  <path d="M 90.714 63.571 A 4.286 4.286 0 0 0 95.000 59.286" />
  <path d="M 5.000 59.286 L 5.000 9.286" />
  <path d="M 90.714 63.571 L 9.286 63.571" />
  <path d="M 5.000 59.286 A 4.286 4.286 0 0 0 9.286 63.571" />
  <path d="M 10.714 13.571 A 2.857 2.857 0 0 0 7.857 16.429" />
  <path d="M 92.143 16.429 A 2.857 2.857 0 0 0 89.286 13.571" />
  <path d="M 92.143 16.429 L 92.143 57.857" />
  <path d="M 89.286 60.714 A 2.857 2.857 0 0 0 92.143 57.857" />
  <path d="M 10.714 13.571 L 45.000 13.571" />
  <path d="M 47.857 16.429 A 2.857 2.857 0 0 0 45.000 13.571" />
  <path d="M 55.000 13.571 L 89.286 13.571" />
  <path d="M 55.000 13.571 A 2.857 2.857 0 0 0 52.143 16.429" />
  <path d="M 52.143 16.429 L 52.143 57.857" />
  <path d="M 89.286 60.714 L 55.000 60.714" />
  <path d="M 52.143 57.857 A 2.857 2.857 0 0 0 55.000 60.714" />
  <path d="M 47.857 16.429 L 47.857 57.857" />
  <path d="M 45.000 60.714 A 2.857 2.857 0 0 0 47.857 57.857" />
  <path d="M 45.000 60.714 L 10.714 60.714" />
  <path d="M 7.857 57.857 L 7.857 16.429" />
  <path d="M 7.857 57.857 A 2.857 2.857 0 0 0 10.714 60.714" />
  <path d="M 23.571 25.000 A 4.286 4.286 0 1 0 32.143 25.000 A 4.286 4.286 0 1 0 23.571 25.000" />
  <path d="M 67.857 25.000 A 4.286 4.286 0 1 0 76.429 25.000 A 4.286 4.286 0 1 0 67.857 25.000" />
</svg>