<svg xmlns="http://www.w3.org/2000/svg" viewBox="0 0 100 100" stroke="currentColor" fill="none" stroke-width="1.00" stroke-linecap="round" stroke-linejoin="round">
  <path d="M 5.000 95.000 L 5.000 5.000" />
  <path d="M 5.000 5.000 L 95.000 5.000" />
  <path d="M 95.000 5.000 L 95.000 95.000" />
  <path d="M 95.000 95.000 L 5.000 95.000" />
  <path d="M 15.000 10.000 A 5.000 5.000 0 0 0 10.000 15.000" />
  <path d="M 15.000 10.000 L 85.000 10.000" />
  <path d="M 90.000 15.000 A 5.000 5.000 0 0 0 85.000 10.000" />
  <path d="M 90.000 15.000 L 90.000 85.000" />
  <path d="M 85.000 90.000 A 5.000 5.000 0 0 0 90.000 85.000" />
  <path d="M 10.000 85.000 L 10.000 15.000" />
  <path d="M 85.000 90.000 L 15.000 90.000" />
  <path d="M 10.000 85.000 A 5.000 5.000 0 0 0 15.000 90.000" />
  <path d="M 45.000 50.000 A 5.000 5.000 0 1 0 55.000 50.000 A 5.000 5.000 0 1 0 45.000 50.000" />
</svg>