<svg xmlns="http://www.w3.org/2000/svg" viewBox="0 0 100 100" stroke="currentColor" fill="none" stroke-width="1.00" stroke-linecap="round" stroke-linejoin="round">
  <path d="M 50.057 30.883 L 51.298 30.980 L 52.517 31.266 L 53.694 31.739 L 54.810 32.388 L 55.843 33.205 L 56.778 34.174 L 57.598 35.278 L 58.289 36.500 L 58.839 37.818 L 59.238 39.210 L 59.481 40.651 L 59.562 42.117 L 59.481 43.583 L 59.238 45.025 L 58.839 46.416 L 58.289 47.734 L 57.598 48.956 L 56.778 50.060 L 55.843 51.029 L 54.810 51.846 L 53.694 52.496 L 52.517 52.968 L 51.298 53.255 L 50.057 53.351 L 48.816 53.255 L 47.597 52.968 L 46.419 52.496 L 45.304 51.846 L 44.270 51.029 L 43.336 50.060 L 42.516 48.956 L 41.825 47.734 L 41.275 46.416 L 40.875 45.025 L 40.633 43.583 L 40.551 42.117 L 40.633 40.651 L 40.875 39.210 L 41.275 37.818 L 41.825 36.500 L 42.516 35.278 L 43.336 34.174 L 44.270 33.205 L 45.304 32.388 L 46.419 31.739 L 47.597 31.266 L 48.816 30.980 L 50.057 30.883 Z" />
  <path d="M 65.611 9.280 A 1.728 1.728 0 0 0 63.883 7.552" />
  <path d="M 65.611 19.650 L 65.611 9.280" />
  <path d="M 63.883 21.378 A 1.728 1.728 0 0 0 65.611 19.650" />
  <path d="M 36.231 7.552 L 63.883 7.552" />
  <path d="M 36.231 7.552 A 1.728 1.728 0 0 0 34.503 9.280" />
  <path d="M 34.503 19.650 L 34.503 9.280" />
  <path d="M 36.231 21.378 L 63.883 21.378" />
  <path d="M 34.503 19.650 A 1.728 1.728 0 0 0 36.231 21.378" />
  <path d="M 40.906 33.074 A 19.079 19.079 0 0 0 43.144 24.835" />
  <path d="M 56.970 24.835 A 19.019 19.019 0 0 0 58.973 32.773" />
  <path d="M 43.144 24.835 L 43.144 21.378" />
  <path d="M 56.970 24.835 L 56.970 21.378" />
  <path d="M 59.208 33.074 L 59.923 34.116 L 60.547 35.230 L 61.075 36.408 L 61.502 37.638 L 61.825 38.910 L 62.039 40.210 L 62.144 41.528 L 62.137 42.852 L 62.021 44.169 L 61.794 45.467 L 61.460 46.734 L 61.022 47.959 L 60.483 49.130 L 59.848 50.238 L 59.124 51.270 L 58.316 52.219 L 57.433 53.075 L 56.483 53.831 L 55.473 54.480 L 54.414 55.015 L 53.315 55.432 L 52.186 55.727 L 51.038 55.898 L 49.880 55.942 L 48.724 55.859 L 47.581 55.650 L 46.460 55.318 L 45.372 54.864 L 44.327 54.294 L 43.334 53.612 L 42.403 52.825 L 41.543 51.939 L 40.760 50.964 L 40.062 49.907 L 39.456 48.779 L 38.947 47.591 L 38.540 46.351 L 38.239 45.074 L 38.046 43.769 L 37.963 42.449 L 37.990 41.125 L 38.129 39.811 L 38.376 38.518 L 38.731 37.258 L 39.189 36.043 L 39.747 34.883 L 40.400 33.790 L 41.140 32.773" />
</svg>