<svg xmlns="http://www.w3.org/2000/svg" viewBox="0 0 100 100" stroke="currentColor" fill="none" stroke-width="1.00" stroke-linecap="round" stroke-linejoin="round">
  <path d="M 8.103 46.121 L 8.103 48.448" />
  <path d="M 9.267 46.509 L 9.267 48.060" />
  <path d="M 10.431 48.060 L 10.431 48.448" />
  <path d="M 10.431 46.121 L 10.431 46.509" />
  <path d="M 9.267 46.121 L 9.267 45.733" />
  <path d="M 8.103 46.121 L 9.267 46.121" />
  <path d="M 6.552 39.526 L 6.552 48.836" />
  <path d="M 5.000 48.836 L 5.000 50.388" />
  <path d="M 8.103 50.388 L 5.000 50.388" />
  <path d="M 8.103 39.526 L 6.552 39.526" />
  <path d="M 5.000 48.836 L 6.552 48.836" />
  <path d="M 9.267 45.733 L 9.267 46.121" />
  <path d="M 9.267 46.121 L 8.103 46.121" />
  <path d="M 8.103 45.733 L 9.267 45.733" />
  <path d="M 8.103 46.121 L 8.103 48.448" />
  <path d="M 8.103 48.448 L 8.103 50.388" />
  <path d="M 8.103 39.526 L 8.103 45.733" />
  <path d="M 53.103 39.526 L 53.103 48.836" />
  <path d="M 54.655 48.836 L 54.655 50.388" />
  <path d="M 51.552 50.388 L 54.655 50.388" />
  <path d="M 51.552 39.526 L 53.103 39.526" />
  <path d="M 54.655 48.836 L 53.103 48.836" />
  <path d="M 50.388 45.733 L 50.388 46.121" />
  <path d="M 50.388 46.121 L 51.552 46.121" />
  <path d="M 51.552 45.733 L 50.388 45.733" />
  <path d="M 51.552 46.121 L 51.552 48.448" />
  <path d="M 49.224 46.121 L 49.224 46.509" />
  <path d="M 49.224 48.060 L 49.224 48.448" />
  <path d="M 50.388 46.509 L 50.388 48.060" />
  <path d="M 51.552 48.448 L 51.552 50.388" />
  <path d="M 51.552 39.526 L 51.552 45.733" />
  <path d="M 8.103 39.526 L 51.552 39.526" />
  <path d="M 9.267 45.733 L 50.388 45.733" />
  <path d="M 9.267 46.509 L 50.388 46.509" />
  <path d="M 9.267 48.060 L 50.388 48.060" />
  <path d="M 8.103 48.448 L 51.552 48.448" />
  <path d="M 6.552 48.836 A 0.000 0.000 0 1 0 6.552 48.836 A 0.000 0.000 0 1 0 6.552 48.836" />
  <path d="M 8.103 48.448 A 43.448 43.448 0 0 0 13.924 70.172" />
  <path d="M 51.552 48.448 L 13.924 70.172" />
  <path d="M 8.103 46.121 L 51.552 46.121" />
  <path d="M 8.103 50.388 L 51.552 50.388" />
</svg>