<svg xmlns="http://www.w3.org/2000/svg" viewBox="0 0 100 100" stroke="currentColor" fill="none" stroke-width="1.00" stroke-linecap="round" stroke-linejoin="round">
  <path d="M 6.698 24.104 L 6.698 34.292" />
  <path d="M 5.000 34.292 L 5.000 35.991" />
  <path d="M 9.670 33.868 L 9.670 34.292" />
  <path d="M 8.396 34.292 L 8.396 35.991" />
  <path d="M 8.396 34.292 L 9.670 34.292" />
  <path d="M 8.396 33.868 L 9.670 33.868" />
  <path d="M 8.396 24.104 L 6.698 24.104" />
  <path d="M 5.000 35.991 L 8.396 35.991" />
  <path d="M 5.000 34.292 L 6.698 34.292" />
  <path d="M 8.396 24.104 L 8.396 33.868" />
  <path d="M 9.670 31.745 L 9.670 33.443" />
  <path d="M 10.943 33.443 L 10.943 33.868" />
  <path d="M 10.943 31.321 L 10.943 31.745" />
  <path d="M 67.830 24.104 L 67.830 34.292" />
  <path d="M 69.528 34.292 L 69.528 35.991" />
  <path d="M 66.132 35.991 L 69.528 35.991" />
  <path d="M 66.132 24.104 L 67.830 24.104" />
  <path d="M 69.528 34.292 L 67.830 34.292" />
  <path d="M 8.396 24.104 L 66.132 24.104" />
  <path d="M 8.396 35.991 L 66.132 35.991" />
  <path d="M 37.264 31.321 L 37.264 33.868" />
  <path d="M 34.717 31.321 L 34.717 31.745" />
  <path d="M 34.717 33.443 L 34.717 33.868" />
  <path d="M 35.991 31.745 L 35.991 33.443" />
  <path d="M 9.670 31.745 L 35.991 31.745" />
  <path d="M 9.670 33.443 L 35.991 33.443" />
  <path d="M 8.396 33.868 L 37.264 33.868" />
  <path d="M 37.264 33.868 L 66.132 33.868" />
  <path d="M 64.858 30.896 L 64.858 31.321" />
  <path d="M 64.858 31.321 L 66.132 31.321" />
  <path d="M 66.132 30.896 L 64.858 30.896" />
  <path d="M 35.991 31.321 L 35.991 30.896" />
  <path d="M 38.538 31.321 L 38.538 30.896" />
  <path d="M 8.396 31.321 L 35.991 31.321" />
  <path d="M 38.538 30.896 L 66.132 30.896" />
  <path d="M 35.991 30.896 L 38.538 30.896" />
  <path d="M 37.264 31.321 L 38.538 31.321" />
  <path d="M 38.538 31.745 L 38.538 33.443" />
  <path d="M 39.811 33.443 L 39.811 33.868" />
  <path d="M 39.811 31.321 L 39.811 31.745" />
  <path d="M 63.585 31.321 L 63.585 31.745" />
  <path d="M 63.585 33.443 L 63.585 33.868" />
  <path d="M 64.858 31.745 L 64.858 33.443" />
  <path d="M 38.538 31.745 L 64.858 31.745" />
  <path d="M 38.538 33.443 L 64.858 33.443" />
  <path d="M 37.264 31.321 L 64.858 31.321" />
  <path d="M 66.132 33.868 L 66.132 35.991" />
  <path d="M 37.264 33.868 A 28.868 28.868 0 0 0 41.132 48.302" />
  <path d="M 66.132 33.868 L 41.132 48.302" />
  <path d="M 66.132 24.104 L 66.132 30.896" />
  <path d="M 66.132 31.321 L 66.132 33.868" />
</svg>