<svg xmlns="http://www.w3.org/2000/svg" viewBox="0 0 100 100" stroke="currentColor" fill="none" stroke-width="1.00" stroke-linecap="round" stroke-linejoin="round">
  <path d="M 7.368 5.000 L 7.368 19.211" />
  <path d="M 5.000 19.211 L 5.000 21.579" />
  <path d="M 11.513 18.618 L 11.513 19.211" />
  <path d="M 9.737 19.211 L 9.737 21.579" />
  <path d="M 9.737 19.211 L 11.513 19.211" />
  <path d="M 9.737 18.618 L 11.513 18.618" />
  <path d="M 9.737 5.000 L 7.368 5.000" />
  <path d="M 5.000 21.579 L 9.737 21.579" />
  <path d="M 5.000 19.211 L 7.368 19.211" />
  <path d="M 9.737 5.000 L 9.737 18.618" />
  <path d="M 11.513 15.658 L 11.513 18.026" />
  <path d="M 13.289 18.026 L 13.289 18.618" />
  <path d="M 13.289 15.066 L 13.289 15.658" />
  <path d="M 92.632 5.000 L 92.632 19.211" />
  <path d="M 95.000 19.211 L 95.000 21.579" />
  <path d="M 88.487 18.618 L 88.487 19.211" />
  <path d="M 90.263 19.211 L 90.263 21.579" />
  <path d="M 88.487 19.211 L 90.263 19.211" />
  <path d="M 90.263 18.618 L 88.487 18.618" />
  <path d="M 90.263 21.579 L 95.000 21.579" />
  <path d="M 90.263 5.000 L 92.632 5.000" />
  <path d="M 95.000 19.211 L 92.632 19.211" />
  <path d="M 90.263 5.000 L 90.263 18.618" />
  <path d="M 88.487 11.513 L 88.487 13.882" />
  <path d="M 86.711 10.921 L 86.711 11.513" />
  <path d="M 86.711 13.882 L 86.711 14.474" />
  <path d="M 48.224 10.921 L 48.224 14.474" />
  <path d="M 48.224 14.474 L 48.224 15.066" />
  <path d="M 51.776 14.474 L 51.776 15.066" />
  <path d="M 51.776 15.066 L 51.776 18.618" />
  <path d="M 48.224 15.066 L 48.224 15.658" />
  <path d="M 48.224 18.026 L 48.224 18.618" />
  <path d="M 50.000 15.658 L 50.000 18.026" />
  <path d="M 51.776 10.921 L 51.776 11.513" />
  <path d="M 51.776 13.882 L 51.776 14.474" />
  <path d="M 50.000 11.513 L 50.000 13.882" />
  <path d="M 9.737 15.066 L 51.776 15.066" />
  <path d="M 11.513 15.658 L 50.000 15.658" />
  <path d="M 11.513 18.026 L 50.000 18.026" />
  <path d="M 9.737 18.618 L 51.776 18.618" />
  <path d="M 51.776 18.618 L 90.263 18.618" />
  <path d="M 51.776 15.066 L 90.263 15.066" />
  <path d="M 48.224 14.474 L 90.263 14.474" />
  <path d="M 50.000 13.882 L 88.487 13.882" />
  <path d="M 48.224 10.921 L 90.263 10.921" />
  <path d="M 50.000 11.513 L 90.263 11.513" />
  <path d="M 9.737 5.000 L 90.263 5.000" />
  <path d="M 9.737 21.579 L 90.263 21.579" />
</svg>