<svg xmlns="http://www.w3.org/2000/svg" viewBox="0 0 100 100" stroke="currentColor" fill="none" stroke-width="1.00" stroke-linecap="round" stroke-linejoin="round">
  <path d="M 33.980 21.122 L 33.776 21.327 L 33.367 21.327 L 33.163 21.327 L 32.755 21.327 L 32.551 21.327 L 32.347 21.531 L 32.143 21.531 L 31.939 21.531 L 31.735 21.735 L 31.531 21.735 L 31.327 21.735 L 31.122 21.939 L 30.714 21.939 L 30.510 21.939 L 30.102 22.143 L 29.898 22.143 L 29.694 22.347 L 29.490 22.347 L 29.286 22.551 L 29.082 22.755 L 28.878 22.755 L 28.673 22.959 L 28.265 22.959 L 28.061 23.163 L 27.653 23.163 L 27.449 23.367 L 27.041 23.571 L 26.633 23.571 L 26.224 23.776 L 25.816 23.980 L 25.408 23.980 L 25.000 24.184 L 24.796 24.184 L 24.592 24.388 L 24.388 24.388 L 24.184 24.592 L 24.184 24.796 L 23.980 24.796 L 23.980 25.000 L 23.776 25.000 L 23.776 25.204 L 23.776 25.408 L 23.980 25.408 L 24.184 25.612 L 24.388 25.816 L 24.592 25.816 L 24.796 26.020 L 25.000 26.020 L 25.000 26.224 L 25.204 26.224 L 25.408 26.224 L 25.408 26.429 L 25.408 26.633 L 25.204 26.633 L 25.204 26.837 L 25.000 26.837" />
  <path d="M 58.061 30.714 L 57.857 30.510 L 57.857 30.306 L 58.061 30.102 L 58.061 29.898 L 58.265 29.898 L 58.469 29.694 L 58.673 29.694 L 58.673 29.490 L 58.878 29.490 L 59.082 29.490 L 59.286 29.286 L 59.490 29.286 L 59.694 29.286 L 59.898 29.082 L 60.306 29.082 L 60.510 28.878 L 60.918 28.673 L 61.122 28.673 L 61.531 28.469 L 61.735 28.469 L 61.939 28.469 L 62.143 28.265 L 62.347 28.265 L 62.551 28.265 L 62.755 28.265 L 62.959 28.265 L 63.163 28.265 L 63.367 28.061 L 63.776 28.061 L 64.184 28.061 L 64.592 28.061 L 64.796 27.857 L 65.204 27.857 L 65.408 27.857 L 65.612 27.857 L 65.816 27.857 L 66.020 27.857 L 66.224 28.061 L 66.429 28.061 L 66.633 28.061 L 67.041 28.265 L 67.245 28.265 L 67.449 28.265 L 67.653 28.469 L 67.857 28.469 L 68.061 28.469 L 68.265 28.469 L 68.469 28.469 L 68.673 28.265 L 68.878 28.265 L 69.082 28.061 L 69.286 28.061 L 69.490 28.061 L 69.490 27.857 L 69.694 27.857 L 69.898 27.857 L 69.898 27.653 L 70.102 27.653 L 70.306 27.449" />
  <path d="M 55.408 16.837 L 55.204 16.633 L 55.000 16.633" />
  <path d="M 33.163 26.020 L 33.367 26.020 L 33.367 25.816 L 33.571 25.816 L 33.776 25.612 L 33.980 25.612 L 34.184 25.612 L 34.388 25.408 L 34.796 25.408 L 35.000 25.408 L 35.204 25.408 L 35.612 25.408 L 35.816 25.204 L 36.224 25.204 L 36.429 25.204 L 36.837 25.204 L 37.041 25.204 L 37.449 25.000 L 37.857 25.000 L 38.265 25.000 L 38.673 25.000 L 39.082 25.000 L 39.694 25.000 L 40.102 25.000 L 40.510 25.000 L 41.122 25.000 L 41.531 24.796 L 42.143 24.796 L 42.551 24.796 L 42.959 24.796 L 43.367 24.796 L 43.776 24.796 L 44.184 24.592 L 44.388 24.592 L 44.592 24.592 L 44.796 24.592 L 45.000 24.388 L 45.204 24.388 L 45.408 24.388 L 45.612 24.184 L 45.816 24.184 L 46.224 23.980 L 46.429 23.776 L 46.633 23.776 L 46.837 23.571 L 47.041 23.571 L 47.245 23.571 L 47.449 23.571 L 47.449 23.367 L 47.653 23.367 L 47.857 23.367 L 48.061 23.163 L 48.265 23.163 L 48.469 23.163 L 48.673 22.959 L 48.878 22.959 L 49.082 22.959 L 49.286 22.959 L 49.694 22.959 L 49.898 22.959 L 50.102 22.959 L 50.306 22.959 L 50.510 22.959 L 50.714 22.959 L 50.918 22.959 L 51.122 22.959 L 51.327 22.959 L 51.531 22.959 L 51.735 22.755 L 51.939 22.755 L 52.143 22.755" />
  <path d="M 62.347 36.837 L 62.551 36.837 L 62.959 36.837 L 63.163 36.837 L 63.571 37.041 L 63.776 37.041 L 63.980 37.041 L 64.184 37.245 L 64.388 37.245 L 64.592 37.245 L 64.592 37.449 L 64.592 37.653 L 64.592 37.857 L 64.592 38.061 L 64.388 38.265 L 64.388 38.469 L 64.388 38.673 L 64.592 38.878 L 64.592 39.082 L 64.796 39.286 L 64.796 39.490 L 65.000 39.694 L 65.000 39.898 L 65.000 40.102 L 65.000 40.306 L 65.000 40.510 L 65.000 40.714 L 65.000 40.918 L 65.000 41.122 L 65.000 41.327 L 65.000 41.531 L 65.000 41.735 L 65.000 41.939 L 65.000 42.143 L 65.000 42.347 L 64.796 42.551 L 64.796 42.755 L 64.592 42.959 L 64.592 43.163 L 64.592 43.367 L 64.796 43.571 L 64.796 43.776 L 65.000 43.980 L 65.000 44.184 L 65.204 44.388 L 65.000 44.592 L 65.000 44.796 L 65.000 45.000 L 64.796 45.000 L 64.796 45.204 L 64.592 45.408 L 64.592 45.612 L 64.796 45.816 L 64.796 46.020 L 65.000 46.224 L 65.000 46.429 L 65.204 46.429 L 65.204 46.633 L 65.408 46.837 L 65.408 47.041 L 65.612 47.245 L 65.816 47.449 L 66.020 47.653 L 66.224 47.857 L 66.429 48.061 L 66.224 48.061 L 66.429 48.265 L 66.224 48.469" />
  <path d="M 31.939 66.224 L 31.735 66.224 L 31.939 66.224 L 32.143 66.224 L 32.347 66.224 L 32.755 66.224 L 32.959 66.429 L 33.163 66.429 L 33.367 66.633 L 33.571 66.837 L 33.776 67.041 L 33.980 67.245 L 34.184 67.449 L 34.184 67.653 L 34.388 67.857 L 34.388 68.061 L 34.388 68.265 L 34.592 68.469 L 34.796 68.878 L 35.000 69.082 L 35.204 69.286 L 35.408 69.490 L 35.612 69.694 L 35.816 69.898 L 36.020 70.102 L 36.224 70.306 L 36.224 70.510 L 36.224 70.714 L 36.224 70.918 L 36.224 71.122 L 36.224 71.327 L 36.224 71.531 L 36.224 71.735 L 36.020 71.735 L 36.020 71.939" />
  <path d="M 36.020 78.265 L 35.408 78.265 L 34.592 78.265 L 33.776 78.265 L 32.755 78.265 L 31.735 78.265 L 30.918 78.265 L 30.306 78.265 L 29.898 78.265 L 29.490 78.061 L 28.878 78.061 L 28.469 77.857 L 28.061 77.449 L 27.449 77.245 L 27.041 76.837 L 26.633 76.633 L 26.224 76.224 L 25.612 76.020 L 25.204 75.612 L 24.592 75.204 L 23.571 74.796 L 22.755 74.592 L 22.143 74.184 L 21.735 73.776 L 21.327 73.367 L 21.327 72.959 L 20.918 72.551 L 20.714 72.143 L 20.714 71.735 L 20.918 71.327 L 21.122 70.714 L 21.327 70.306 L 21.735 69.898 L 21.939 69.490 L 22.143 69.082 L 22.347 68.673 L 22.347 68.265 L 22.143 67.857 L 22.143 67.449 L 22.143 67.041 L 22.143 66.633 L 22.143 66.224 L 21.939 66.020 L 21.939 65.612 L 21.735 65.408 L 21.735 65.000 L 21.735 64.592 L 21.735 64.184 L 21.939 63.776 L 21.531 63.367 L 21.122 63.163 L 20.918 63.163" />
  <path d="M 12.959 46.633 L 12.755 46.633 L 12.959 46.633 L 13.163 46.633 L 12.959 46.429 L 12.755 46.224 L 12.551 46.224 L 12.347 46.020 L 12.347 45.816 L 12.347 45.612 L 12.551 45.408 L 12.755 45.204 L 12.959 45.204 L 12.959 45.000 L 13.163 45.000 L 13.367 44.796 L 13.571 44.796 L 13.571 44.592 L 13.776 44.592 L 13.980 44.592 L 14.184 44.388 L 14.592 44.184 L 14.796 44.184 L 15.000 44.184 L 15.000 43.980 L 15.204 43.980 L 15.408 43.776 L 15.612 43.776 L 15.612 43.571 L 15.816 43.367 L 16.020 43.163 L 16.020 42.959 L 15.816 42.755 L 15.612 42.551 L 15.408 42.347 L 15.204 42.347 L 15.000 42.143 L 14.796 42.143 L 14.592 41.939 L 14.388 41.735 L 14.184 41.531 L 14.184 41.327 L 13.980 41.327 L 13.980 41.122 L 13.776 41.122 L 13.776 40.918 L 13.571 40.918 L 13.571 40.714 L 13.571 40.510 L 13.367 40.306 L 13.367 40.102 L 13.367 39.898 L 13.367 39.694 L 13.367 39.490 L 13.367 39.286 L 13.367 39.082 L 13.367 38.878 L 13.367 38.673 L 13.571 38.469 L 13.571 38.265 L 13.776 38.265 L 13.776 38.061 L 13.980 37.857 L 13.980 37.653 L 14.184 37.653 L 14.184 37.449 L 14.388 37.245 L 14.388 37.041 L 14.592 37.041 L 14.592 36.837 L 14.592 36.633 L 14.592 36.429 L 14.592 36.224 L 14.592 36.020 L 14.796 35.816 L 14.796 35.612 L 14.796 35.408 L 14.796 35.204 L 15.000 35.204 L 15.000 35.000 L 15.204 34.796 L 15.204 34.592 L 15.408 34.592 L 15.408 34.388 L 15.612 34.388 L 15.612 34.184 L 15.612 33.980 L 15.408 33.980 L 15.408 33.776 L 15.408 33.571" />
  <path d="M 21.122 62.143 L 20.918 62.347 L 20.714 62.347 L 20.510 62.347 L 20.306 62.347 L 20.102 62.347 L 19.898 62.347 L 19.694 62.347 L 19.490 62.347 L 19.286 62.347 L 19.082 62.143 L 18.878 62.143 L 18.673 61.939 L 18.673 61.735 L 18.673 61.531 L 18.673 61.327 L 18.673 61.122 L 18.878 60.918 L 18.878 60.714 L 19.082 60.510 L 19.082 60.306 L 19.082 60.102 L 19.286 59.898 L 19.286 59.694 L 19.286 59.490 L 19.286 59.286 L 19.286 59.082 L 19.286 58.878 L 19.082 58.469 L 19.082 58.265 L 18.878 58.061 L 18.673 57.857 L 18.673 57.653 L 18.265 57.653 L 18.265 57.449 L 18.061 57.449 L 17.857 57.245 L 17.653 57.041 L 17.449 57.041 L 17.449 56.837 L 17.245 56.633 L 17.245 56.429 L 17.245 56.224 L 17.245 56.020 L 17.245 55.816 L 17.449 55.408 L 17.449 55.204 L 17.653 55.000 L 17.653 54.796 L 17.857 54.592 L 17.857 54.388 L 17.857 54.184 L 17.857 53.980 L 17.857 53.776 L 17.857 53.571 L 17.857 53.367 L 17.857 53.163 L 17.857 52.959 L 17.857 52.755 L 17.857 52.551 L 17.857 52.347 L 17.653 52.143 L 17.653 51.939 L 17.653 51.735 L 17.449 51.531 L 17.449 51.327 L 17.449 51.122 L 17.449 50.918 L 17.449 50.714 L 17.449 50.510 L 17.449 50.306 L 17.653 50.306 L 17.857 50.102 L 17.857 49.898 L 18.061 49.694 L 18.061 49.490 L 18.265 49.490 L 18.265 49.286 L 18.469 49.082 L 18.673 48.878 L 18.673 48.469" />
  <path d="M 37.041 15.816 L 37.041 15.612 L 36.837 15.408 L 36.837 15.204 L 37.245 14.796 L 37.449 14.796 L 37.653 14.796 L 37.857 14.796 L 38.265 15.000 L 38.469 15.000 L 38.878 15.000 L 39.286 15.000 L 39.490 15.000 L 39.898 15.204 L 40.102 15.000 L 40.306 15.204 L 40.510 15.000 L 40.714 15.000 L 40.918 15.000 L 41.122 15.000 L 41.327 15.000 L 41.531 14.796 L 41.939 14.796 L 42.143 14.796 L 42.347 14.592 L 42.755 14.592 L 42.959 14.388 L 43.367 14.388 L 43.571 14.388 L 43.776 14.184 L 43.980 14.184 L 44.184 14.184 L 44.388 14.184 L 44.592 14.184 L 44.796 13.980 L 45.000 13.980 L 45.204 13.980 L 45.408 13.980 L 45.612 13.980 L 45.816 13.980 L 45.816 13.776 L 45.612 13.776" />
  <path d="M 50.510 17.449 L 50.306 17.653 L 50.102 17.653 L 49.898 17.857 L 50.102 17.653 L 50.306 17.653 L 50.510 17.449 L 50.918 17.245 L 51.122 17.245 L 51.327 17.041 L 51.531 17.041 L 51.735 16.837 L 51.939 16.837 L 52.143 16.837 L 52.347 16.633 L 52.551 16.633 L 52.755 16.429 L 52.959 16.429 L 53.367 16.429 L 53.571 16.429 L 53.776 16.224 L 53.980 16.224 L 54.184 16.224 L 54.388 16.224 L 54.592 16.224 L 54.796 16.224 L 55.000 16.224 L 55.204 16.429 L 55.408 16.429 L 55.612 16.429 L 55.816 16.429 L 56.020 16.429 L 56.224 16.633 L 56.429 16.633 L 56.633 16.633 L 56.837 16.837 L 57.245 16.837 L 57.653 17.041 L 58.061 17.041 L 58.469 17.041 L 58.878 17.245 L 59.082 17.245 L 59.286 17.245 L 59.286 17.449 L 59.490 17.449 L 59.490 17.653 L 59.490 17.857 L 59.694 18.061 L 59.694 18.265 L 59.694 18.469 L 59.694 18.673 L 59.694 19.082 L 59.694 19.286 L 59.694 19.490 L 59.694 19.694 L 59.694 19.898 L 59.694 20.102 L 59.694 20.306 L 59.694 20.510 L 59.694 20.714 L 59.898 20.918 L 60.102 21.122" />
  <path d="M 62.551 17.449 L 62.755 17.449 L 63.367 17.653 L 64.184 17.653 L 65.204 17.653 L 66.020 17.653 L 66.837 17.857 L 67.449 17.857 L 68.265 18.061 L 68.878 18.265 L 69.694 18.469 L 70.306 18.673 L 71.122 19.082 L 71.939 19.286 L 72.347 19.694 L 72.755 19.898 L 72.959 20.306 L 73.163 20.510 L 73.367 20.918 L 73.776 21.327 L 73.980 21.531 L 74.184 21.939 L 74.184 22.347 L 74.388 22.755 L 74.388 23.163 L 74.184 23.571 L 74.388 23.980 L 74.592 24.388 L 75.000 24.796 L 75.408 25.204 L 75.612 25.408 L 76.020 25.408 L 76.429 25.612 L 76.633 25.816 L 76.837 26.020 L 77.041 26.224 L 77.245 26.429 L 77.449 26.633 L 77.857 26.837 L 78.061 27.041 L 78.469 27.245 L 78.878 27.449 L 79.286 27.653 L 79.694 28.061 L 79.898 28.265 L 79.694 28.673 L 79.694 29.082 L 79.490 29.490 L 79.694 29.898 L 79.898 30.306 L 80.102 30.714" />
  <path d="M 58.061 33.571 L 57.653 33.367 L 57.449 33.367 L 57.245 33.367 L 57.041 33.367 L 56.837 33.367 L 56.633 33.571 L 56.429 33.571 L 56.224 33.571 L 56.020 33.571 L 55.816 33.571 L 55.612 33.571 L 55.408 33.571 L 55.204 33.571 L 55.000 33.571 L 54.796 33.571 L 54.592 33.571 L 54.388 33.571 L 54.184 33.571 L 53.980 33.571 L 53.776 33.571 L 53.571 33.367 L 53.367 33.367 L 53.163 33.367 L 52.959 33.163 L 52.755 33.163 L 52.551 32.959 L 52.347 32.959 L 52.143 32.959 L 51.939 32.755 L 51.735 32.755 L 51.531 32.755 L 51.327 32.551 L 51.122 32.551 L 50.918 32.551 L 50.714 32.551 L 50.510 32.347 L 50.102 32.347 L 49.898 32.347 L 49.694 32.347 L 48.469 32.143" />
  <path d="M 72.959 32.551 L 73.163 32.551 L 73.367 32.551 L 73.571 32.551 L 73.776 32.551 L 73.980 32.551 L 74.184 32.551 L 74.388 32.347 L 74.592 32.347 L 74.796 32.347 L 75.204 32.551 L 75.204 32.755 L 75.204 32.959 L 75.000 33.163 L 75.000 33.367 L 75.000 33.571 L 74.796 33.776 L 74.796 33.980 L 74.796 34.388 L 74.796 34.592 L 74.796 34.796 L 75.000 35.000 L 75.000 35.204 L 75.000 35.408 L 75.000 35.612 L 75.000 35.816 L 75.000 36.020 L 75.204 36.020 L 75.204 36.224 L 75.408 36.429 L 75.612 36.633 L 75.612 36.837 L 75.612 37.041 L 75.612 37.245 L 75.612 37.449 L 75.408 37.653 L 75.408 37.857 L 75.408 38.061 L 75.408 38.265 L 75.612 38.469 L 75.816 38.673 L 76.020 38.673 L 76.020 38.878 L 76.224 39.082 L 76.429 39.082 L 76.633 39.286 L 76.633 39.490 L 76.633 39.694 L 76.633 39.898 L 76.837 40.102 L 76.837 40.306 L 76.837 40.510 L 76.837 40.714 L 76.837 40.918 L 76.633 41.122 L 76.633 41.327 L 76.633 41.531 L 76.633 41.735 L 76.633 41.939 L 76.429 42.143 L 76.429 42.347 L 76.224 42.551 L 76.020 42.755 L 76.020 42.959 L 76.020 43.163 L 76.224 43.163 L 76.224 43.367 L 76.429 43.367 L 76.633 43.571 L 76.837 43.571 L 77.041 43.776 L 77.245 43.776 L 77.449 43.980 L 77.653 43.980 L 78.061 43.980 L 78.265 44.184 L 78.469 44.184 L 78.673 44.184 L 78.878 44.388 L 79.082 44.388 L 79.286 44.388 L 79.490 44.592 L 79.694 44.592 L 79.898 44.592 L 80.306 44.592 L 80.510 44.796 L 80.918 44.796" />
  <path d="M 79.082 64.796 L 78.878 64.796 L 78.673 64.796 L 78.878 64.796 L 79.082 64.796 L 79.286 65.000 L 79.490 65.000 L 79.694 65.000 L 79.898 65.000 L 80.102 65.000 L 80.306 65.000 L 80.510 65.000 L 80.714 64.796 L 80.918 64.796 L 81.122 64.796 L 81.327 64.592 L 81.735 64.592 L 81.939 64.388 L 82.143 64.184 L 82.347 64.184 L 82.755 63.980 L 82.959 63.776 L 83.163 63.571 L 83.571 63.367 L 83.776 63.163 L 83.980 62.959 L 83.980 62.755 L 83.980 62.551 L 84.184 62.347 L 84.184 62.143 L 84.184 61.939 L 84.184 61.735 L 84.388 61.531 L 84.388 61.327 L 84.388 61.122 L 84.592 60.918 L 84.592 60.714 L 84.796 60.510 L 84.796 60.306 L 84.796 60.102 L 84.796 59.898 L 85.000 59.898 L 85.000 59.694 L 85.204 59.490 L 85.204 59.286 L 85.408 59.082 L 85.612 59.082 L 85.612 58.878 L 85.816 58.469 L 86.020 58.265 L 86.224 58.061 L 86.224 57.653 L 86.429 57.449 L 86.429 57.245 L 86.633 57.041 L 86.633 56.837 L 86.837 56.429 L 87.041 56.224 L 87.041 56.020 L 87.245 56.020 L 87.245 55.816 L 87.449 55.612 L 87.653 55.612 L 87.857 55.408 L 88.061 55.204 L 88.265 55.000 L 88.469 54.796 L 88.673 54.592 L 88.878 54.388 L 89.082 54.184 L 89.082 53.980 L 89.286 53.776 L 89.286 53.571 L 89.490 53.367 L 89.490 53.163 L 89.490 52.959 L 89.286 52.755 L 89.286 52.551 L 89.286 52.347 L 89.082 52.143 L 89.082 51.939 L 88.878 51.939 L 88.673 51.735 L 88.469 51.531 L 88.265 51.327 L 88.061 51.327 L 87.857 51.122 L 87.653 51.122 L 87.449 50.918 L 87.245 50.714 L 87.245 50.510 L 87.245 50.306 L 87.449 50.102 L 87.653 49.898" />
  <path d="M 56.633 69.490 L 56.633 69.490 L 56.837 69.694 L 56.837 69.898 L 56.837 70.102 L 57.041 70.306 L 57.245 70.510 L 57.245 70.714 L 57.449 70.918 L 57.653 70.918 L 57.857 71.122 L 58.061 71.327 L 58.265 71.531 L 58.469 71.735 L 58.673 71.735 L 58.878 71.939 L 59.082 72.143 L 59.286 72.143 L 59.490 72.347 L 59.898 72.347 L 60.306 72.551 L 60.714 72.551 L 60.918 72.551 L 61.327 72.755 L 61.531 72.755 L 61.735 72.755 L 61.939 72.959 L 62.143 72.959 L 62.347 72.959 L 62.347 73.163 L 62.551 73.163 L 62.755 73.367 L 62.959 73.367 L 63.163 73.571 L 63.571 73.571 L 63.776 73.776 L 64.184 73.776 L 64.388 73.776 L 64.796 73.980 L 65.000 73.980 L 65.204 74.184 L 65.408 74.184 L 65.612 74.388 L 65.816 74.388 L 65.816 74.592 L 66.020 74.592 L 66.224 74.796 L 66.633 74.796 L 67.041 75.000 L 67.245 75.000 L 67.653 75.000 L 68.061 75.000 L 68.469 75.204 L 68.673 75.204 L 68.878 75.204 L 69.082 75.204 L 69.286 75.204" />
  <path d="M 50.102 73.163 L 49.898 72.959 L 49.694 72.755 L 49.286 72.755 L 49.082 72.755 L 48.673 72.755 L 48.265 72.959 L 47.653 72.959 L 47.245 72.959 L 46.837 72.959 L 46.429 72.959 L 46.020 73.163 L 45.816 73.163 L 45.408 73.163 L 45.204 73.367 L 45.000 73.367 L 44.796 73.367 L 44.592 73.367 L 44.388 73.571 L 44.184 73.571 L 43.980 73.571 L 43.776 73.571 L 43.571 73.776 L 43.367 73.776 L 43.163 73.776 L 42.959 73.776 L 42.755 73.980 L 42.551 73.980 L 42.347 73.980 L 42.143 73.980 L 41.939 74.184 L 41.735 74.184 L 41.531 74.184 L 41.531 74.388 L 41.327 74.388" />
  <path d="M 78.061 50.102 L 77.653 49.898 L 77.041 49.898 L 76.633 50.102 L 76.224 50.102 L 75.612 50.306 L 75.204 50.714 L 74.796 50.918 L 74.592 51.327 L 74.592 51.735 L 74.388 52.143 L 74.184 52.551 L 73.980 52.755 L 73.776 53.163 L 73.776 53.571 L 74.184 53.776 L 74.388 53.980 L 74.592 54.388 L 75.000 54.592 L 75.204 55.000 L 75.612 55.204 L 75.816 55.408 L 76.224 55.816 L 76.429 56.224 L 76.633 56.429 L 76.837 56.837 L 77.041 57.245 L 77.245 57.449 L 77.041 57.857 L 76.837 58.265 L 76.633 58.673 L 76.633 59.082 L 76.633 59.490 L 76.429 59.694 L 76.429 60.102 L 76.224 60.510 L 76.224 60.918 L 76.224 61.327 L 76.020 61.735 L 76.020 62.143 L 75.612 62.551 L 75.204 62.755 L 75.000 62.959 L 75.000 63.367 L 74.796 63.571 L 74.592 63.776 L 74.592 64.184 L 74.388 64.388 L 74.184 64.796 L 73.980 65.204 L 73.980 65.612 L 73.980 66.020 L 73.980 66.429 L 73.980 66.837 L 73.776 67.245 L 73.571 67.653 L 73.367 68.061 L 72.959 68.469 L 72.551 68.878 L 72.143 68.673" />
  <path d="M 59.898 62.755 L 59.694 62.755 L 59.490 62.755 L 59.694 62.755 L 59.898 62.755 L 60.306 62.551 L 60.510 62.551 L 60.918 62.551 L 61.327 62.347 L 61.531 62.347 L 61.735 62.143 L 61.939 62.143 L 62.143 62.143 L 62.347 61.939 L 62.551 61.735 L 62.755 61.735 L 63.163 61.531 L 63.367 61.327 L 63.571 61.327 L 63.571 61.122 L 63.776 61.122 L 63.980 60.918 L 63.980 60.714 L 64.184 60.714 L 64.184 60.510 L 64.388 60.306 L 64.592 60.306 L 64.592 60.102 L 64.592 59.898 L 64.592 59.694 L 64.592 59.490 L 64.796 59.286 L 64.796 59.082 L 64.796 58.878 L 65.000 58.878 L 65.000 58.673 L 65.000 58.469 L 65.000 58.265 L 65.000 58.061 L 64.796 57.857 L 64.796 57.653 L 64.592 57.449 L 64.592 57.245 L 64.592 57.041 L 64.796 56.837 L 64.796 56.633 L 64.796 56.429 L 64.796 56.224 L 64.796 56.020 L 64.796 55.816 L 64.796 55.612 L 64.592 55.408 L 64.592 55.204 L 64.388 55.000 L 64.388 54.796 L 64.388 54.592 L 64.388 54.388 L 64.388 54.184 L 64.592 53.980 L 64.796 53.980 L 64.796 53.776 L 65.000 53.571 L 65.204 53.571 L 65.408 53.367 L 65.408 53.163 L 65.408 52.959 L 65.408 52.755 L 65.204 52.755 L 65.000 52.551 L 64.796 52.551 L 64.388 52.347 L 64.184 52.347 L 63.776 52.143 L 63.571 52.143 L 63.367 51.939 L 63.163 51.939 L 62.959 51.939 L 62.959 51.735 L 62.959 51.531 L 62.959 51.327 L 62.959 51.122 L 62.959 50.918 L 62.755 50.918 L 62.755 50.714 L 62.755 50.510" />
  <path d="M 54.184 82.143 L 53.980 82.143 L 54.184 82.143 L 54.388 82.143 L 54.796 82.143 L 55.204 82.143 L 55.816 82.143 L 56.224 82.143 L 56.837 82.143 L 57.449 82.143 L 57.857 82.143 L 58.265 82.143 L 58.469 82.143 L 58.673 82.143 L 58.878 82.143 L 59.082 82.143 L 59.286 82.143 L 59.490 82.143 L 59.694 82.143 L 59.898 82.143 L 60.102 82.347 L 60.306 82.347 L 60.510 82.347 L 60.714 82.347 L 60.918 82.347 L 61.327 82.347 L 61.531 82.143 L 61.939 82.143 L 62.347 82.143 L 62.959 82.143 L 63.571 81.939 L 63.980 81.939 L 64.592 81.939 L 65.000 81.939 L 65.408 81.735 L 65.816 81.735 L 66.224 81.735 L 66.633 81.735 L 66.837 81.531" />
  <path d="M 35.816 83.980 L 36.633 83.980 L 36.837 83.980 L 37.041 83.980 L 37.449 83.980 L 37.653 83.980 L 37.857 84.184 L 38.061 84.184 L 38.265 84.388 L 38.469 84.388 L 38.673 84.592 L 38.878 84.592 L 39.286 84.592 L 39.490 84.592 L 39.694 84.796 L 40.102 84.796 L 40.306 84.592 L 40.714 84.592 L 40.918 84.592 L 41.327 84.592 L 41.531 84.592 L 41.735 84.592 L 42.143 84.592 L 42.347 84.388 L 42.551 84.388 L 42.755 84.388 L 42.959 84.388 L 43.163 84.184 L 43.367 84.184 L 43.776 84.184 L 43.980 84.184 L 44.184 83.980 L 44.388 83.980 L 44.592 83.776 L 44.796 83.776 L 45.000 83.571 L 45.000 83.367 L 45.204 83.367 L 45.204 83.163 L 45.408 83.163 L 45.408 82.959 L 45.612 82.755 L 45.816 82.551 L 45.816 82.347 L 45.816 82.143 L 46.020 81.939 L 46.020 81.735 L 46.020 81.531 L 46.224 81.327 L 46.429 81.122 L 46.429 80.918 L 46.429 80.714 L 46.633 80.510 L 46.633 80.306 L 46.633 80.102 L 46.633 79.898 L 46.837 79.694 L 46.837 79.490 L 46.837 79.286 L 46.837 79.082 L 47.041 79.082 L 47.041 78.878 L 47.245 78.878 L 47.245 78.673 L 47.449 78.673 L 47.653 78.673 L 47.857 78.673 L 47.857 78.469 L 48.061 78.469 L 48.265 78.469 L 48.469 78.469 L 48.878 78.265 L 49.286 78.265 L 49.694 78.265 L 50.102 78.061 L 50.510 78.061 L 50.918 78.061 L 51.327 77.857 L 51.735 77.653 L 52.347 77.653 L 52.755 77.449 L 52.959 77.449 L 53.367 77.245 L 53.571 77.245 L 53.776 77.245 L 53.980 77.245 L 53.980 77.041 L 53.776 77.041" />
  <path d="M 37.041 45.000 L 36.837 45.000 L 36.837 44.796 L 36.837 45.000 L 37.041 45.000 L 37.041 45.204 L 37.245 45.408 L 37.245 45.612 L 37.041 45.816 L 36.837 46.020 L 36.633 46.224 L 36.429 46.429 L 36.224 46.633 L 36.020 46.837 L 35.816 47.245 L 35.612 47.449 L 35.408 47.653 L 35.204 47.857 L 35.204 48.061 L 35.000 48.469 L 35.000 48.673 L 34.796 48.878 L 34.796 49.082 L 34.796 49.286 L 34.592 49.490 L 34.388 49.694 L 34.388 49.898 L 34.184 50.102 L 33.980 50.102 L 33.980 50.306 L 33.980 50.510 L 33.776 50.714 L 33.776 50.918 L 33.571 50.918 L 33.571 51.122 L 33.571 51.327 L 33.571 51.531 L 33.571 51.735 L 33.571 51.939 L 33.367 52.143 L 33.367 52.347 L 33.163 52.347 L 32.959 52.551 L 32.959 52.755 L 32.755 52.959 L 32.551 52.959 L 32.551 53.163 L 32.551 53.367 L 32.551 53.571 L 32.551 53.776 L 32.755 53.776 L 32.755 53.980 L 32.755 54.184 L 32.755 54.388 L 32.755 54.592 L 32.551 54.592 L 32.347 54.796 L 32.347 55.000 L 32.143 55.000 L 31.939 55.204 L 31.735 55.408 L 31.531 55.612 L 31.531 55.816 L 31.531 56.020 L 31.735 56.224 L 32.143 56.429 L 32.551 56.633 L 33.163 56.837 L 33.776 56.837 L 34.388 57.041 L 35.000 57.041 L 35.408 57.041 L 35.816 57.041 L 36.020 57.245" />
  <path d="M 29.082 40.102 L 29.286 40.306 L 29.694 40.510 L 30.306 40.714 L 30.918 40.918 L 31.122 41.122 L 31.327 41.327 L 31.531 41.531 L 31.531 41.939 L 31.531 42.347 L 31.327 42.551 L 31.122 42.959 L 30.714 43.163 L 30.306 43.571 L 30.102 43.980 L 30.102 44.388 L 30.102 44.796 L 30.102 45.408 L 30.102 45.816 L 30.102 46.224 L 29.898 46.633 L 29.694 46.837 L 29.286 47.041 L 28.878 47.245 L 28.469 47.449 L 28.061 47.653 L 27.449 48.061 L 27.041 48.469 L 26.633 48.878 L 26.429 49.082 L 26.020 49.286 L 25.816 49.694 L 25.612 49.898 L 25.204 50.102 L 25.000 50.306 L 24.796 50.714 L 24.592 50.918 L 24.184 51.327 L 23.980 51.531 L 23.776 51.939 L 23.571 52.143 L 23.571 52.551 L 23.776 52.959 L 23.980 53.163 L 24.184 53.367 L 24.388 53.776 L 24.796 53.980 L 25.000 54.184 L 25.408 54.388 L 25.612 54.592 L 25.612 55.000 L 25.612 55.408 L 25.612 55.816 L 25.612 56.224 L 25.816 56.429 L 26.020 56.633 L 26.020 57.041 L 25.816 57.245 L 25.408 57.245" />
  <path d="M 22.008 42.932 L 22.185 43.034 L 22.287 42.858 L 22.464 42.960 L 22.566 42.783 L 22.668 42.606 L 22.947 42.532 L 23.049 42.355 L 23.253 42.001 L 23.457 41.648 L 23.763 41.118 L 24.069 40.587 L 24.450 40.336 L 24.654 39.983 L 24.960 39.452 L 25.164 39.099 L 25.368 38.745 L 25.573 38.392 L 25.777 38.038 L 25.981 37.685 L 26.185 37.331 L 26.389 36.978 L 26.593 36.624 L 26.518 36.346 L 26.620 36.169 L 26.722 35.992 L 26.824 35.815 L 27.028 35.462 L 27.131 35.285 L 27.233 35.109 L 27.335 34.932 L 27.260 34.653 L 27.362 34.476 L 27.464 34.300 L 27.566 34.123 L 27.668 33.946 L 27.770 33.769 L 27.872 33.593 L 27.974 33.416 L 28.076 33.239 L 28.355 33.164 L 28.457 32.988 L 28.661 32.634 L 28.940 32.559 L 29.042 32.383 L 29.144 32.206 L 29.423 32.131 L 29.525 31.955 L 29.627 31.778 L 29.804 31.880 L 29.906 31.703 L 30.008 31.526 L 30.286 31.452 L 30.389 31.275 L 30.565 31.377 L 30.667 31.200 L 30.769 31.024 L 31.048 30.949 L 30.946 31.126" />
  <path d="M 40.306 31.765 L 40.306 31.969 L 40.510 31.969 L 40.714 32.173 L 40.918 32.173 L 41.122 32.377 L 41.531 32.377 L 41.735 32.581 L 42.143 32.581 L 42.347 32.785 L 42.347 32.989 L 42.347 33.193 L 42.143 33.193 L 42.143 33.397 L 41.939 33.601 L 41.939 34.009 L 41.735 34.214 L 41.735 34.418 L 41.531 34.622 L 41.531 34.826 L 41.531 35.030 L 41.735 35.234 L 41.735 35.438 L 41.735 35.642 L 41.735 35.846 L 41.531 36.050 L 41.327 36.254 L 41.327 36.458 L 41.122 36.458 L 41.122 36.662 L 40.918 36.867 L 40.714 37.071 L 40.510 37.275 L 40.510 37.479 L 40.510 37.683 L 40.510 37.887 L 40.306 37.887 L 40.306 38.091 L 40.102 38.091 L 40.102 38.295 L 40.102 38.499 L 39.898 38.499 L 39.898 38.703 L 39.694 38.907 L 39.490 39.111 L 39.490 39.316 L 39.286 39.316 L 39.082 39.520 L 38.878 39.520 L 38.673 39.316 L 38.469 39.316" />
  <path d="M 87.350 66.922 L 86.345 68.431 L 86.177 69.269 L 85.674 69.604 L 85.339 69.940 L 85.004 70.275 L 84.836 70.442 L 84.388 71.122 L 84.184 71.122 L 83.980 71.122 L 83.776 71.122 L 83.571 71.122 L 83.367 71.122 L 83.163 71.122 L 82.959 71.122 L 82.755 71.122 L 82.551 71.122 L 82.347 71.122 L 82.143 71.122 L 82.143 70.918 L 81.939 70.918 L 81.735 70.918 L 81.531 70.918 L 81.122 70.918 L 80.918 71.122 L 80.510 71.122 L 80.306 71.122 L 79.898 71.122 L 79.694 71.327 L 79.286 71.327 L 79.082 71.531 L 78.878 71.531 L 78.673 71.735 L 78.265 71.939 L 78.061 71.939 L 77.857 72.143 L 77.653 72.143 L 77.449 72.347 L 77.245 72.347 L 77.041 72.551 L 76.837 72.755 L 76.633 72.755 L 76.633 72.959 L 76.429 73.163 L 76.224 73.367 L 76.020 73.571 L 76.020 73.776 L 75.816 73.980 L 75.612 74.184 L 75.408 74.388 L 75.204 74.592 L 75.204 74.796 L 75.000 75.000 L 75.000 75.204 L 75.000 75.408 L 74.796 75.408 L 74.796 75.612 L 74.592 75.612 L 74.592 75.816 L 74.388 76.020 L 74.184 76.224 L 74.184 76.429 L 73.980 76.633 L 73.980 76.837 L 73.980 77.041 L 73.980 77.245 L 73.980 77.449 L 73.776 77.449 L 73.776 77.653 L 73.571 77.857 L 73.367 77.857 L 73.163 78.061 L 72.959 78.061 L 72.755 78.061 L 72.551 78.265 L 72.347 78.265 L 72.143 78.469 L 71.939 78.469 L 71.735 78.469 L 71.531 78.469 L 71.122 78.673 L 70.918 78.673 L 70.510 78.673 L 70.102 78.878 L 69.898 78.878 L 69.490 78.878 L 69.082 79.082 L 68.878 79.082 L 68.673 79.286 L 68.469 79.286" />
  <path d="M 50.714 46.020 L 49.898 46.837 L 49.490 46.633 L 49.082 46.633 L 48.673 46.837 L 48.265 46.837 L 47.857 47.041 L 47.449 47.245 L 47.041 47.245 L 46.633 47.449 L 46.429 47.653 L 46.224 47.857 L 46.020 48.061 L 45.816 48.469 L 45.816 48.878 L 45.816 49.286 L 46.224 49.490 L 46.633 49.694 L 47.041 49.898 L 47.449 49.898 L 47.857 50.102 L 48.265 50.102 L 48.673 50.306 L 49.286 50.306 L 49.694 50.510 L 50.102 50.714 L 50.510 50.918 L 50.918 50.918 L 51.327 51.122 L 51.735 51.327 L 52.143 51.327 L 52.551 51.327 L 52.959 51.327 L 53.367 51.122 L 53.776 51.122 L 54.184 51.122 L 54.592 50.918 L 55.000 50.510 L 55.408 50.306 L 55.816 50.102 L 56.224 49.694 L 56.224 49.286 L 56.224 48.878 L 55.816 48.673 L 55.612 48.469 L 55.408 48.265 L 55.204 48.061 L 55.204 47.653 L 55.000 47.449 L 55.000 47.041 L 54.796 46.837 L 54.388 46.633 L 53.980 46.633 L 53.571 46.429 L 52.959 46.224 L 52.347 46.020 L 51.939 46.020 L 51.531 46.020 L 51.122 46.020 L 50.714 46.020" />
  <path d="M 44.184 55.612 L 44.388 55.612 L 44.592 55.612 L 44.796 55.612 L 45.000 55.612 L 45.204 55.816 L 45.408 55.816 L 45.408 56.020 L 45.408 56.224 L 45.612 56.224 L 45.816 56.429 L 46.020 56.633 L 46.224 56.633 L 46.224 56.837 L 46.429 56.837 L 46.633 57.041 L 46.837 57.041 L 47.041 57.245 L 47.245 57.449 L 47.449 57.449 L 47.653 57.449 L 47.857 57.449 L 48.061 57.449 L 48.265 57.449 L 48.469 57.449 L 48.673 57.449 L 48.878 57.449 L 49.082 57.449 L 49.286 57.449 L 49.490 57.449 L 49.694 57.449 L 49.898 57.449 L 50.102 57.449 L 50.306 57.449 L 50.510 57.449 L 50.714 57.449 L 51.122 57.653 L 51.531 57.653 L 51.939 57.653 L 52.143 57.653 L 52.551 57.653 L 52.755 57.857 L 52.959 57.857 L 52.959 58.061 L 52.959 58.265 L 53.163 58.265 L 53.163 58.469 L 53.163 58.673 L 53.367 58.673 L 53.367 58.878 L 53.367 59.082 L 53.571 59.082 L 53.571 59.286 L 53.571 59.490 L 53.571 59.694 L 53.367 59.694 L 53.367 59.898" />
  <path d="M 49.006 65.284 L 48.744 65.162 L 48.605 64.779 L 48.535 64.587 L 48.343 64.657 L 48.273 64.465 L 48.082 64.535 L 47.820 64.413 L 47.628 64.482 L 47.175 64.430 L 46.913 64.308 L 46.722 64.378 L 46.268 64.326 L 46.076 64.396 L 45.623 64.344 L 45.362 64.222 L 44.908 64.169 L 44.525 64.309 L 44.263 64.187 L 43.810 64.135 L 43.548 64.013 L 43.287 63.891 L 42.903 64.031 L 42.641 63.909 L 42.188 63.856 L 41.927 63.734 L 41.735 63.804 L 41.473 63.682 L 41.212 63.560 L 41.142 63.368 L 41.334 63.299 L 41.264 63.107 L 41.386 62.845 L 41.316 62.654 L 41.508 62.584 L 41.438 62.392 L 41.560 62.130 L 41.490 61.939 L 41.420 61.747 L 41.159 61.625 L 40.967 61.695 L 40.775 61.765" />
  <path d="M 15.408 22.551 L 20.102 18.673 L 24.796 14.592 L 29.898 12.755 L 35.204 9.490 L 41.531 7.653 L 48.265 6.429 L 55.612 5.000 L 61.531 6.633 L 67.653 7.857 L 71.939 10.918 L 78.673 15.204 L 82.143 20.510 L 87.041 25.204 L 88.061 30.714 L 92.755 35.612 L 90.510 39.490 L 92.755 44.388 L 94.388 50.510 L 94.388 57.041 L 92.959 62.347 L 90.918 67.653 L 88.265 71.939 L 85.204 76.020 L 81.735 80.714 L 77.653 85.000 L 71.327 86.633 L 66.020 89.490 L 61.531 92.959 L 55.204 94.388 L 49.694 93.776 L 43.163 94.388 L 36.633 92.551 L 27.653 90.714 L 25.408 87.245 L 19.286 85.204 L 18.061 80.306 L 14.184 77.041 L 11.939 71.939 L 10.510 67.857 L 7.041 62.755 L 5.612 57.449 L 6.837 52.551 L 7.449 47.245 L 5.816 41.939 L 6.429 36.633 L 9.286 32.143 L 14.184 28.878 L 14.388 23.776 L 16.224 22.347" />
</svg>