<svg xmlns="http://www.w3.org/2000/svg" viewBox="0 0 100 100" stroke="currentColor" fill="none" stroke-width="1.00" stroke-linecap="round" stroke-linejoin="round">
  <path d="M 25.454 15.484 L 25.126 15.484 L 24.798 15.484" />
  <path d="M 44.948 50.880 A 4.759 4.759 0 1 0 54.466 50.880 A 4.759 4.759 0 1 0 44.948 50.880" />
  <path d="M 44.778 5.000 L 53.344 5.939 L 62.145 8.990 L 65.078 14.622 L 61.910 20.606 L 67.073 13.214 L 74.348 11.102 L 79.628 17.321 L 80.450 23.305 L 88.077 26.708 L 87.608 33.396 L 90.541 39.967 L 91.010 47.360 L 92.771 54.987 L 89.837 63.201 L 84.087 65.900 L 76.343 61.441 L 79.276 64.609 L 87.021 67.660 L 85.143 73.057 L 78.924 77.164 L 76.812 85.261 L 68.716 87.960 L 60.267 90.189 L 52.171 92.653 L 44.192 94.531 L 45.482 87.373 L 46.538 79.628 L 43.957 87.725 L 36.799 92.653 L 27.295 90.072 L 25.769 82.679 L 29.289 75.522 L 23.070 78.807 L 20.137 74.231 L 9.342 70.124 L 5.821 62.966 L 9.459 56.630 L 6.173 49.707 L 9.342 42.666 L 8.286 35.274 L 13.566 27.881 L 17.438 22.132 L 25.535 27.881 L 27.881 28.116 L 22.132 21.076 L 25.417 15.443 L 34.452 12.040 L 41.610 6.643 L 44.778 5.000" />
</svg>