<svg xmlns="http://www.w3.org/2000/svg" viewBox="0 0 100 100" stroke="currentColor" fill="none" stroke-width="1.00" stroke-linecap="round" stroke-linejoin="round">
  <path d="M 13.710 78.742 L 10.226 78.742" />
  <path d="M 13.710 77.000 L 14.290 77.000" />
  <path d="M 13.710 78.742 L 13.710 77.000" />
  <path d="M 13.129 77.000 L 10.806 77.000" />
  <path d="M 10.806 75.258 L 10.226 75.258" />
  <path d="M 13.710 75.258 L 13.129 75.258" />
  <path d="M 13.710 78.742 L 10.226 78.742" />
  <path d="M 23.581 81.065 L 9.645 81.065" />
  <path d="M 9.645 83.387 L 7.323 83.387" />
  <path d="M 7.323 78.742 L 7.323 83.387" />
  <path d="M 23.581 78.742 L 23.581 81.065" />
  <path d="M 9.645 83.387 L 9.645 81.065" />
  <path d="M 14.290 77.000 L 13.710 77.000" />
  <path d="M 13.710 77.000 L 13.710 78.742" />
  <path d="M 14.290 78.742 L 14.290 77.000" />
  <path d="M 13.710 78.742 L 10.226 78.742" />
  <path d="M 10.226 78.742 L 7.323 78.742" />
  <path d="M 23.581 78.742 L 14.290 78.742" />
  <path d="M 23.581 39.258 L 9.645 39.258" />
  <path d="M 9.645 36.935 L 7.323 36.935" />
  <path d="M 7.323 41.581 L 7.323 36.935" />
  <path d="M 23.581 41.581 L 23.581 39.258" />
  <path d="M 9.645 36.935 L 9.645 39.258" />
  <path d="M 14.290 43.323 L 13.710 43.323" />
  <path d="M 13.710 43.323 L 13.710 41.581" />
  <path d="M 14.290 41.581 L 14.290 43.323" />
  <path d="M 13.710 45.065 L 13.129 45.065" />
  <path d="M 10.806 45.065 L 10.226 45.065" />
  <path d="M 13.129 43.323 L 10.806 43.323" />
  <path d="M 23.581 41.581 L 14.290 41.581" />
  <path d="M 10.226 41.581 L 7.323 41.581" />
  <path d="M 13.710 41.581 L 10.226 41.581" />
  <path d="M 23.581 38.677 L 9.645 38.677" />
  <path d="M 23.581 81.645 L 9.645 81.645" />
  <path d="M 9.645 81.645 L 9.645 95.000" />
  <path d="M 23.581 81.645 L 23.581 95.000" />
  <path d="M 14.290 38.677 L 14.290 11.968" />
  <path d="M 17.774 38.677 L 17.774 11.968" />
  <path d="M 10.806 38.677 L 10.806 5.000" />
  <path d="M 23.581 8.484 L 10.806 8.484" />
  <path d="M 23.581 11.968 L 10.806 11.968" />
  <path d="M 23.581 5.000 L 9.645 5.000" />
  <path d="M 9.645 38.677 L 9.645 5.000" />
  <path d="M 23.581 38.677 L 23.581 5.000" />
  <path d="M 10.806 5.000 L 23.581 8.484" />
  <path d="M 23.581 8.484 L 10.806 11.968" />
  <path d="M 23.581 11.968 L 10.806 8.484" />
  <path d="M 10.806 8.484 L 23.581 5.000" />
  <path d="M 10.806 11.968 L 14.290 38.677" />
  <path d="M 14.290 38.677 L 17.774 11.968" />
  <path d="M 17.774 38.677 L 14.290 11.968" />
  <path d="M 14.290 11.968 L 10.806 38.677" />
  <path d="M 10.806 81.645 L 10.806 95.000" />
  <path d="M 10.806 81.645 L 23.581 85.129" />
  <path d="M 23.581 85.129 L 10.806 85.129" />
  <path d="M 23.581 81.645 L 10.806 85.129" />
  <path d="M 25.903 59.290 L 16.086 59.290" />
  <path d="M 14.818 59.290 L 5.000 59.290" />
  <path d="M 14.818 61.032 L 5.000 61.032" />
  <path d="M 25.903 61.032 L 16.086 61.032" />
  <path d="M 7.323 78.742 L 7.323 61.032" />
  <path d="M 10.226 78.742 L 10.226 61.032" />
  <path d="M 10.806 77.000 L 10.806 61.032" />
  <path d="M 13.129 77.000 L 13.129 61.032" />
  <path d="M 13.710 78.742 L 13.710 61.032" />
  <path d="M 14.290 77.000 L 14.290 61.032" />
  <path d="M 23.581 78.742 L 23.581 61.032" />
  <path d="M 7.323 59.290 L 7.323 41.581" />
  <path d="M 10.226 59.290 L 10.226 41.581" />
  <path d="M 10.806 59.290 L 10.806 43.323" />
  <path d="M 13.129 59.290 L 13.129 43.323" />
  <path d="M 13.710 59.290 L 13.710 43.323" />
  <path d="M 14.290 59.290 L 14.290 43.323" />
  <path d="M 23.581 59.290 L 23.581 41.581" />
</svg>