<svg xmlns="http://www.w3.org/2000/svg" viewBox="0 0 100 100" stroke="currentColor" fill="none" stroke-width="1.00" stroke-linecap="round" stroke-linejoin="round">
  <path d="M 22.769 34.994 L 22.769 39.095" />
  <path d="M 24.819 34.994 L 24.819 34.311" />
  <path d="M 22.769 34.994 L 24.819 34.994" />
  <path d="M 24.819 35.678 L 24.819 38.411" />
  <path d="M 26.869 38.411 L 26.869 39.095" />
  <path d="M 26.869 34.994 L 26.869 35.678" />
  <path d="M 22.769 34.994 L 22.769 39.095" />
  <path d="M 17.301 39.778 L 17.301 42.512" />
  <path d="M 22.769 42.512 L 17.301 42.512" />
  <path d="M 24.819 34.311 L 24.819 34.994" />
  <path d="M 24.819 34.994 L 22.769 34.994" />
  <path d="M 22.769 34.311 L 24.819 34.311" />
  <path d="M 22.769 34.994 L 22.769 39.095" />
  <path d="M 22.769 39.095 L 22.769 42.512" />
  <path d="M 71.974 39.778 L 71.974 42.512" />
  <path d="M 66.507 42.512 L 71.974 42.512" />
  <path d="M 64.457 34.311 L 64.457 34.994" />
  <path d="M 64.457 34.994 L 66.507 34.994" />
  <path d="M 66.507 34.311 L 64.457 34.311" />
  <path d="M 62.406 34.994 L 62.406 35.678" />
  <path d="M 62.406 38.411 L 62.406 39.095" />
  <path d="M 64.457 35.678 L 64.457 38.411" />
  <path d="M 66.507 39.095 L 66.507 42.512" />
  <path d="M 66.507 34.994 L 66.507 39.095" />
  <path d="M 24.819 34.311 L 64.457 34.311" />
  <path d="M 24.819 35.678 L 64.457 35.678" />
  <path d="M 24.819 38.411 L 64.457 38.411" />
  <path d="M 22.769 39.095 L 66.507 39.095" />
  <path d="M 71.974 39.778 L 68.557 39.778" />
  <path d="M 17.301 39.778 L 20.718 39.778" />
  <path d="M 20.035 23.376 L 20.035 39.778" />
  <path d="M 11.834 23.376 L 11.834 38.411" />
  <path d="M 15.935 23.376 L 15.935 38.411" />
  <path d="M 11.834 23.376 L 15.935 38.411" />
  <path d="M 15.935 38.411 L 20.035 23.376" />
  <path d="M 11.834 38.411 L 15.935 23.376" />
  <path d="M 15.935 23.376 L 20.035 38.411" />
  <path d="M 20.035 23.376 L 6.367 23.376" />
  <path d="M 20.035 38.411 L 6.367 38.411" />
  <path d="M 20.035 39.778 L 6.367 39.778" />
  <path d="M 7.734 37.044 A 1.367 1.367 0 0 0 10.467 37.044" />
  <path d="M 9.100 24.743 A 1.367 1.367 0 0 0 6.367 24.743" />
  <path d="M 11.834 24.743 A 1.367 1.367 0 0 0 9.100 24.743" />
  <path d="M 10.467 37.044 A 1.367 1.367 0 0 0 11.834 38.411" />
  <path d="M 6.367 38.411 A 1.367 1.367 0 0 0 7.734 37.044" />
  <path d="M 6.367 24.743 L 7.734 37.044" />
  <path d="M 7.734 37.044 L 9.100 24.743" />
  <path d="M 9.100 24.743 L 10.467 37.044" />
  <path d="M 10.467 37.044 L 11.834 24.743" />
  <path d="M 20.035 22.009 L 6.367 22.009" />
  <path d="M 22.769 34.994 L 66.507 34.994" />
  <path d="M 28.628 60.964 L 66.507 39.095" />
  <path d="M 22.769 39.095 A 36.145 36.145 0 0 0 26.578 57.413" />
  <path d="M 26.578 57.413 L 28.628 60.964" />
  <path d="M 28.695 56.979 L 30.062 59.347" />
  <path d="M 31.838 58.322 L 32.180 58.913" />
  <path d="M 30.129 55.362 L 30.471 55.954" />
  <path d="M 26.578 57.413 L 28.628 60.964" />
  <path d="M 60.905 37.594 L 61.247 38.186" />
  <path d="M 62.614 40.553 L 62.956 41.145" />
  <path d="M 63.023 37.160 L 64.390 39.528" />
  <path d="M 64.457 35.543 L 66.507 39.095" />
  <path d="M 28.695 56.979 L 63.023 37.160" />
  <path d="M 30.062 59.347 L 64.390 39.528" />
  <path d="M 26.578 57.413 L 64.457 35.543" />
  <path d="M 69.240 23.376 L 69.240 39.778" />
  <path d="M 77.441 23.376 L 77.441 38.411" />
  <path d="M 73.341 23.376 L 73.341 38.411" />
  <path d="M 77.441 23.376 L 73.341 38.411" />
  <path d="M 73.341 38.411 L 69.240 23.376" />
  <path d="M 77.441 38.411 L 73.341 23.376" />
  <path d="M 73.341 23.376 L 69.240 38.411" />
  <path d="M 69.240 23.376 L 82.909 23.376" />
  <path d="M 69.240 38.411 L 82.909 38.411" />
  <path d="M 69.240 39.778 L 82.909 39.778" />
  <path d="M 78.808 37.044 A 1.367 1.367 0 0 0 81.542 37.044" />
  <path d="M 82.909 24.743 A 1.367 1.367 0 0 0 80.175 24.743" />
  <path d="M 80.175 24.743 A 1.367 1.367 0 0 0 77.441 24.743" />
  <path d="M 77.441 38.411 A 1.367 1.367 0 0 0 78.808 37.044" />
  <path d="M 81.542 37.044 A 1.367 1.367 0 0 0 82.909 38.411" />
  <path d="M 82.909 24.743 L 81.542 37.044" />
  <path d="M 81.542 37.044 L 80.175 24.743" />
  <path d="M 80.175 24.743 L 78.808 37.044" />
  <path d="M 78.808 37.044 L 77.441 24.743" />
  <path d="M 69.240 22.009 L 82.909 22.009" />
  <path d="M 22.769 42.512 L 66.507 42.512" />
  <path d="M 20.718 22.009 L 20.718 39.778" />
  <path d="M 22.769 22.009 L 22.769 34.311" />
  <path d="M 66.507 22.009 L 66.507 34.311" />
  <path d="M 68.557 22.009 L 68.557 39.778" />
  <path d="M 22.769 22.009 L 66.507 22.009" />
  <path d="M 22.769 22.009 L 20.718 22.009" />
  <path d="M 66.507 22.009 L 68.557 22.009" />
  <path d="M 20.035 22.009 L 20.035 23.376" />
  <path d="M 69.240 22.009 L 69.240 23.376" />
</svg>