<svg xmlns="http://www.w3.org/2000/svg" viewBox="0 0 100 100" stroke="currentColor" fill="none" stroke-width="1.00" stroke-linecap="round" stroke-linejoin="round">
  <path d="M 90.500 5.000 L 90.500 32.000" />
  <path d="M 95.000 32.000 L 95.000 36.500" />
  <path d="M 82.625 21.875 L 86.000 21.875" />
  <path d="M 82.625 21.875 L 82.625 26.375" />
  <path d="M 82.625 30.875 L 82.625 32.000" />
  <path d="M 86.000 5.000 L 86.000 21.875" />
  <path d="M 86.000 26.375 L 86.000 30.875" />
  <path d="M 86.000 32.000 L 86.000 36.500" />
  <path d="M 82.625 32.000 L 86.000 32.000" />
  <path d="M 82.625 26.375 L 86.000 26.375" />
  <path d="M 86.000 30.875 L 82.625 30.875" />
  <path d="M 86.000 36.500 L 95.000 36.500" />
  <path d="M 86.000 5.000 L 90.500 5.000" />
  <path d="M 95.000 32.000 L 90.500 32.000" />
  <path d="M 9.500 5.000 L 9.500 32.000" />
  <path d="M 5.000 32.000 L 5.000 36.500" />
  <path d="M 14.000 21.875 L 17.375 21.875" />
  <path d="M 17.375 21.875 L 17.375 26.375" />
  <path d="M 17.375 30.875 L 17.375 32.000" />
  <path d="M 14.000 5.000 L 14.000 21.875" />
  <path d="M 14.000 26.375 L 14.000 30.875" />
  <path d="M 14.000 32.000 L 14.000 36.500" />
  <path d="M 14.000 32.000 L 17.375 32.000" />
  <path d="M 17.375 26.375 L 14.000 26.375" />
  <path d="M 14.000 30.875 L 17.375 30.875" />
  <path d="M 14.000 5.000 L 9.500 5.000" />
  <path d="M 5.000 36.500 L 14.000 36.500" />
  <path d="M 5.000 32.000 L 9.500 32.000" />
  <path d="M 14.000 5.000 L 86.000 5.000" />
  <path d="M 14.000 36.500 L 86.000 36.500" />
  <path d="M 14.000 30.875 L 86.000 30.875" />
  <path d="M 14.000 26.375 L 86.000 26.375" />
</svg>