<svg xmlns="http://www.w3.org/2000/svg" viewBox="0 0 100 100" stroke="currentColor" fill="none" stroke-width="1.00" stroke-linecap="round" stroke-linejoin="round">
  <path d="M 55.000 33.125 L 55.000 48.125" />
  <path d="M 57.500 48.125 L 57.500 50.625" />
  <path d="M 52.500 50.625 L 57.500 50.625" />
  <path d="M 52.500 33.125 L 55.000 33.125" />
  <path d="M 57.500 48.125 L 55.000 48.125" />
  <path d="M 10.000 43.750 L 10.000 47.500" />
  <path d="M 10.000 47.500 L 52.500 47.500" />
  <path d="M 50.625 43.125 L 50.625 43.750" />
  <path d="M 50.625 43.750 L 52.500 43.750" />
  <path d="M 52.500 43.125 L 50.625 43.125" />
  <path d="M 11.875 43.750 L 11.875 43.125" />
  <path d="M 11.875 43.125 L 52.500 43.125" />
  <path d="M 10.000 43.750 L 11.875 43.750" />
  <path d="M 11.875 44.375 L 11.875 46.875" />
  <path d="M 13.750 46.875 L 13.750 47.500" />
  <path d="M 13.750 43.750 L 13.750 44.375" />
  <path d="M 48.750 43.750 L 48.750 44.375" />
  <path d="M 48.750 46.875 L 48.750 47.500" />
  <path d="M 50.625 44.375 L 50.625 46.875" />
  <path d="M 11.875 44.375 L 50.625 44.375" />
  <path d="M 11.875 46.875 L 50.625 46.875" />
  <path d="M 10.000 43.750 L 50.625 43.750" />
  <path d="M 52.500 33.125 L 52.500 43.125" />
  <path d="M 52.500 47.500 L 52.500 50.625" />
  <path d="M 52.500 43.750 L 52.500 47.500" />
  <path d="M 10.000 43.750 L 10.000 47.500" />
  <path d="M 7.500 33.125 L 7.500 48.125" />
  <path d="M 5.000 48.125 L 5.000 50.625" />
  <path d="M 10.000 50.625 L 5.000 50.625" />
  <path d="M 10.000 33.125 L 7.500 33.125" />
  <path d="M 5.000 48.125 L 7.500 48.125" />
  <path d="M 11.875 43.125 L 11.875 43.750" />
  <path d="M 11.875 43.750 L 10.000 43.750" />
  <path d="M 10.000 43.125 L 11.875 43.125" />
  <path d="M 10.000 43.750 L 10.000 47.500" />
  <path d="M 10.000 47.500 L 10.000 50.625" />
  <path d="M 10.000 33.125 L 10.000 43.125" />
  <path d="M 10.000 33.125 L 52.500 33.125" />
  <path d="M 10.000 50.625 L 52.500 50.625" />
  <path d="M 10.114 50.617 A 42.500 42.500 0 0 0 15.694 68.750" />
  <path d="M 52.500 47.500 L 15.694 68.750" />
</svg>